# MagicaVoxel @ Ephtracy

# group
o 

# material
mtllib player1.mtl
usemtl palette

# normals
vn -1 0 0
vn 1 0 0
vn 0 0 1
vn 0 0 -1
vn 0 -1 0
vn 0 1 0

# texcoords
vt 0.00195313 0.5
vt 0.00585938 0.5
vt 0.00976563 0.5
vt 0.0136719 0.5
vt 0.0175781 0.5
vt 0.0214844 0.5

# verts
v 0 2.2 -0.1
v 0 2.2 -0.3
v 0 2.3 -0.1
v 0 2.3 -0.3
v 0.1 2.1 -0.1
v 0.1 2.1 -0.3
v 0.1 2.2 -0.1
v 0.1 2.2 -0.3
v 0.6 1 0
v 0.6 1 -0.3
v 0.6 1.1 0
v 0.6 1.1 -0.1
v 0.6 1.2 -0.1
v 0.6 1.2 -0.3
v 0.6 1.7 0
v 0.6 1.7 -0.1
v 0.6 1.7 -0.3
v 0.6 1.7 -0.4
v 0.6 2.1 -0.1
v 0.6 2.1 -0.3
v 0.6 2.3 0
v 0.6 2.3 -0.1
v 0.6 2.3 -0.3
v 0.6 2.3 -0.4
v 0.7 2.4 -0.1
v 0.7 2.4 -0.3
v 0.7 2.4 -0.4
v 0.7 2.5 0
v 0.7 2.5 -0.1
v 0.7 2.7 0
v 0.7 2.7 -0.3
v 0.7 2.7 -0.4
v 0.7 2.8 0
v 0.7 2.8 -0.3
v 0.8 2.3 -0.1
v 0.8 2.3 -0.3
v 0.8 2.4 0
v 0.8 2.4 -0.1
v 0.8 2.4 -0.3
v 0.8 2.5 0
v 0.8 2.5 -0.1
v 1 1 0
v 1 1 -0.3
v 1 1.1 0
v 1 1.1 -0.1
v 1 1.2 -0.1
v 1 1.2 -0.3
v 1 1.6 -0.1
v 1 1.6 -0.3
v 0.8 1 0
v 0.8 1 -0.3
v 0.8 1.1 0
v 0.8 1.1 -0.1
v 0.8 1.2 -0.1
v 0.8 1.2 -0.3
v 0.8 1.6 -0.1
v 0.8 1.6 -0.3
v 1 2.3 -0.1
v 1 2.3 -0.3
v 1 2.4 0
v 1 2.4 -0.1
v 1 2.4 -0.3
v 1 2.5 0
v 1 2.5 -0.1
v 1.1 2.4 -0.1
v 1.1 2.4 -0.3
v 1.1 2.4 -0.4
v 1.1 2.5 0
v 1.1 2.5 -0.1
v 1.1 2.7 0
v 1.1 2.7 -0.3
v 1.1 2.7 -0.4
v 1.1 2.8 0
v 1.1 2.8 -0.3
v 1.2 1 0
v 1.2 1 -0.3
v 1.2 1.1 0
v 1.2 1.1 -0.1
v 1.2 1.2 -0.1
v 1.2 1.2 -0.3
v 1.2 1.7 0
v 1.2 1.7 -0.1
v 1.2 1.7 -0.3
v 1.2 1.7 -0.4
v 1.2 2.1 -0.1
v 1.2 2.1 -0.3
v 1.2 2.3 0
v 1.2 2.3 -0.1
v 1.2 2.3 -0.3
v 1.2 2.3 -0.4
v 1.7 2.1 -0.1
v 1.7 2.1 -0.3
v 1.7 2.2 -0.1
v 1.7 2.2 -0.3
v 1.8 2.2 -0.1
v 1.8 2.2 -0.3
v 1.8 2.3 -0.1
v 1.8 2.3 -0.3
v 0.6 1 0
v 0.6 1.1 0
v 0.6 1.7 0
v 0.6 2.3 0
v 0.7 1.7 0
v 0.7 1.8 0
v 0.7 2.5 0
v 0.7 2.7 0
v 0.7 2.8 0
v 0.8 1 0
v 0.8 1.1 0
v 0.8 1.8 0
v 0.8 2.3 0
v 0.8 2.4 0
v 0.8 2.5 0
v 1 1 0
v 1 1.1 0
v 1 1.8 0
v 1 2.3 0
v 1 2.4 0
v 1 2.5 0
v 1.1 1.7 0
v 1.1 1.8 0
v 1.1 2.5 0
v 1.1 2.7 0
v 1.1 2.8 0
v 1.2 1 0
v 1.2 1.1 0
v 1.2 1.7 0
v 1.2 2.3 0
v 0 2.2 -0.1
v 0 2.3 -0.1
v 0.1 2.1 -0.1
v 0.1 2.2 -0.1
v 0.2 2.1 -0.1
v 0.2 2.3 -0.1
v 0.3 2.1 -0.1
v 0.3 2.3 -0.1
v 0.6 1.1 -0.1
v 0.6 1.2 -0.1
v 0.6 1.7 -0.1
v 0.6 2.1 -0.1
v 0.6 2.3 -0.1
v 0.7 1.7 -0.1
v 0.7 2.4 -0.1
v 0.7 2.5 -0.1
v 0.8 1.1 -0.1
v 0.8 1.2 -0.1
v 0.8 1.6 -0.1
v 0.8 2.3 -0.1
v 0.8 2.4 -0.1
v 0.8 2.5 -0.1
v 1 1.1 -0.1
v 1 1.2 -0.1
v 1 1.6 -0.1
v 1 2.3 -0.1
v 1 2.4 -0.1
v 1 2.5 -0.1
v 1.1 1.7 -0.1
v 1.1 2.4 -0.1
v 1.1 2.5 -0.1
v 1.2 1.1 -0.1
v 1.2 1.2 -0.1
v 1.2 1.7 -0.1
v 1.2 2.1 -0.1
v 1.2 2.3 -0.1
v 1.5 2.1 -0.1
v 1.5 2.3 -0.1
v 1.6 2.1 -0.1
v 1.6 2.3 -0.1
v 1.7 2.1 -0.1
v 1.7 2.2 -0.1
v 1.8 2.2 -0.1
v 1.8 2.3 -0.1
v 0 2.2 -0.3
v 0 2.3 -0.3
v 0.1 2.1 -0.3
v 0.1 2.2 -0.3
v 0.2 2.1 -0.3
v 0.2 2.3 -0.3
v 0.3 2.1 -0.3
v 0.3 2.3 -0.3
v 0.6 1 -0.3
v 0.6 1.2 -0.3
v 0.6 1.7 -0.3
v 0.6 2.1 -0.3
v 0.6 2.3 -0.3
v 0.7 2.7 -0.3
v 0.7 2.8 -0.3
v 0.8 1 -0.3
v 0.8 1.2 -0.3
v 0.8 1.6 -0.3
v 0.8 2.3 -0.3
v 0.8 2.4 -0.3
v 1 1 -0.3
v 1 1.2 -0.3
v 1 1.6 -0.3
v 1 2.3 -0.3
v 1 2.4 -0.3
v 1.1 2.7 -0.3
v 1.1 2.8 -0.3
v 1.2 1 -0.3
v 1.2 1.2 -0.3
v 1.2 1.7 -0.3
v 1.2 2.1 -0.3
v 1.2 2.3 -0.3
v 1.5 2.1 -0.3
v 1.5 2.3 -0.3
v 1.6 2.1 -0.3
v 1.6 2.3 -0.3
v 1.7 2.1 -0.3
v 1.7 2.2 -0.3
v 1.8 2.2 -0.3
v 1.8 2.3 -0.3
v 0.6 1.7 -0.4
v 0.6 2.3 -0.4
v 0.7 2.4 -0.4
v 0.7 2.7 -0.4
v 1.1 2.4 -0.4
v 1.1 2.7 -0.4
v 1.2 1.7 -0.4
v 1.2 2.3 -0.4
v 0.6 1 0
v 0.8 1 0
v 1 1 0
v 1.2 1 0
v 0.6 1 -0.3
v 0.8 1 -0.3
v 1 1 -0.3
v 1.2 1 -0.3
v 0.8 1.6 -0.1
v 1 1.6 -0.1
v 0.8 1.6 -0.3
v 1 1.6 -0.3
v 0.6 1.7 0
v 0.7 1.7 0
v 1.1 1.7 0
v 1.2 1.7 0
v 0.6 1.7 -0.1
v 0.7 1.7 -0.1
v 1.1 1.7 -0.1
v 1.2 1.7 -0.1
v 0.6 1.7 -0.3
v 1.2 1.7 -0.3
v 0.6 1.7 -0.4
v 1.2 1.7 -0.4
v 0.1 2.1 -0.1
v 0.2 2.1 -0.1
v 0.3 2.1 -0.1
v 0.6 2.1 -0.1
v 1.2 2.1 -0.1
v 1.5 2.1 -0.1
v 1.6 2.1 -0.1
v 1.7 2.1 -0.1
v 0.1 2.1 -0.3
v 0.2 2.1 -0.3
v 0.3 2.1 -0.3
v 0.6 2.1 -0.3
v 1.2 2.1 -0.3
v 1.5 2.1 -0.3
v 1.6 2.1 -0.3
v 1.7 2.1 -0.3
v 0 2.2 -0.1
v 0.1 2.2 -0.1
v 1.7 2.2 -0.1
v 1.8 2.2 -0.1
v 0 2.2 -0.3
v 0.1 2.2 -0.3
v 1.7 2.2 -0.3
v 1.8 2.2 -0.3
v 0.8 2.4 0
v 1 2.4 0
v 0.7 2.4 -0.1
v 0.8 2.4 -0.1
v 1 2.4 -0.1
v 1.1 2.4 -0.1
v 0.7 2.4 -0.3
v 0.8 2.4 -0.3
v 1 2.4 -0.3
v 1.1 2.4 -0.3
v 0.7 2.4 -0.4
v 1.1 2.4 -0.4
v 0.7 2.5 0
v 0.8 2.5 0
v 1 2.5 0
v 1.1 2.5 0
v 0.7 2.5 -0.1
v 0.8 2.5 -0.1
v 1 2.5 -0.1
v 1.1 2.5 -0.1
v 0.6 1.1 0
v 0.8 1.1 0
v 1 1.1 0
v 1.2 1.1 0
v 0.6 1.1 -0.1
v 0.8 1.1 -0.1
v 1 1.1 -0.1
v 1.2 1.1 -0.1
v 0.6 2.3 0
v 0.8 2.3 0
v 1 2.3 0
v 1.2 2.3 0
v 0 2.3 -0.1
v 0.2 2.3 -0.1
v 0.3 2.3 -0.1
v 0.6 2.3 -0.1
v 0.8 2.3 -0.1
v 1 2.3 -0.1
v 1.2 2.3 -0.1
v 1.5 2.3 -0.1
v 1.6 2.3 -0.1
v 1.8 2.3 -0.1
v 0 2.3 -0.3
v 0.2 2.3 -0.3
v 0.3 2.3 -0.3
v 0.6 2.3 -0.3
v 0.8 2.3 -0.3
v 1 2.3 -0.3
v 1.2 2.3 -0.3
v 1.5 2.3 -0.3
v 1.6 2.3 -0.3
v 1.8 2.3 -0.3
v 0.6 2.3 -0.4
v 1.2 2.3 -0.4
v 0.7 2.7 -0.3
v 1.1 2.7 -0.3
v 0.7 2.7 -0.4
v 1.1 2.7 -0.4
v 0.7 2.8 0
v 1.1 2.8 0
v 0.7 2.8 -0.3
v 1.1 2.8 -0.3

# faces
f 3/3/1 2/3/1 1/3/1
f 4/3/1 2/3/1 3/3/1
f 7/3/1 6/3/1 5/3/1
f 8/3/1 6/3/1 7/3/1
f 11/5/1 10/5/1 9/5/1
f 12/5/1 10/5/1 11/5/1
f 13/5/1 10/5/1 12/5/1
f 14/5/1 10/5/1 13/5/1
f 16/4/1 14/4/1 13/4/1
f 17/4/1 14/4/1 16/4/1
f 19/2/1 17/2/1 16/2/1
f 19/2/1 18/2/1 17/2/1
f 19/2/1 16/2/1 15/2/1
f 20/2/1 18/2/1 19/2/1
f 21/2/1 19/2/1 15/2/1
f 22/2/1 19/2/1 21/2/1
f 23/2/1 18/2/1 20/2/1
f 24/2/1 18/2/1 23/2/1
f 29/6/1 26/6/1 25/6/1
f 30/6/1 29/6/1 28/6/1
f 31/5/1 27/5/1 26/5/1
f 31/6/1 29/6/1 30/6/1
f 31/6/1 26/6/1 29/6/1
f 32/5/1 27/5/1 31/5/1
f 33/5/1 31/5/1 30/5/1
f 34/5/1 31/5/1 33/5/1
f 38/6/1 36/6/1 35/6/1
f 39/6/1 36/6/1 38/6/1
f 40/6/1 38/6/1 37/6/1
f 41/6/1 38/6/1 40/6/1
f 44/5/1 43/5/1 42/5/1
f 45/5/1 43/5/1 44/5/1
f 46/5/1 43/5/1 45/5/1
f 47/5/1 43/5/1 46/5/1
f 48/4/1 47/4/1 46/4/1
f 49/4/1 47/4/1 48/4/1
f 50/5/2 51/5/2 52/5/2
f 52/5/2 51/5/2 53/5/2
f 53/5/2 51/5/2 54/5/2
f 54/5/2 51/5/2 55/5/2
f 54/4/2 55/4/2 56/4/2
f 56/4/2 55/4/2 57/4/2
f 58/6/2 59/6/2 61/6/2
f 61/6/2 59/6/2 62/6/2
f 60/6/2 61/6/2 63/6/2
f 63/6/2 61/6/2 64/6/2
f 65/6/2 66/6/2 69/6/2
f 68/6/2 69/6/2 70/6/2
f 66/5/2 67/5/2 71/5/2
f 70/6/2 69/6/2 71/6/2
f 69/6/2 66/6/2 71/6/2
f 71/5/2 67/5/2 72/5/2
f 70/5/2 71/5/2 73/5/2
f 73/5/2 71/5/2 74/5/2
f 75/5/2 76/5/2 77/5/2
f 77/5/2 76/5/2 78/5/2
f 78/5/2 76/5/2 79/5/2
f 79/5/2 76/5/2 80/5/2
f 79/4/2 80/4/2 82/4/2
f 82/4/2 80/4/2 83/4/2
f 82/2/2 83/2/2 85/2/2
f 83/2/2 84/2/2 85/2/2
f 81/2/2 82/2/2 85/2/2
f 85/2/2 84/2/2 86/2/2
f 81/2/2 85/2/2 87/2/2
f 87/2/2 85/2/2 88/2/2
f 86/2/2 84/2/2 89/2/2
f 89/2/2 84/2/2 90/2/2
f 91/3/2 92/3/2 93/3/2
f 93/3/2 92/3/2 94/3/2
f 95/3/2 96/3/2 97/3/2
f 97/3/2 96/3/2 98/3/2
f 103/2/3 102/2/3 101/2/3
f 104/2/3 102/2/3 103/2/3
f 108/5/3 100/5/3 99/5/3
f 109/5/3 100/5/3 108/5/3
f 110/3/3 104/3/3 103/3/3
f 110/2/3 102/2/3 104/2/3
f 111/2/3 102/2/3 110/2/3
f 113/6/3 106/6/3 105/6/3
f 116/3/3 111/3/3 110/3/3
f 116/3/3 110/3/3 103/3/3
f 117/3/3 111/3/3 116/3/3
f 118/6/3 113/6/3 112/6/3
f 119/6/3 106/6/3 113/6/3
f 119/6/3 113/6/3 118/6/3
f 120/3/3 116/3/3 103/3/3
f 121/2/3 117/2/3 116/2/3
f 121/3/3 116/3/3 120/3/3
f 122/6/3 106/6/3 119/6/3
f 123/5/3 107/5/3 106/5/3
f 123/6/3 106/6/3 122/6/3
f 124/5/3 107/5/3 123/5/3
f 125/5/3 115/5/3 114/5/3
f 126/5/3 115/5/3 125/5/3
f 127/2/3 121/2/3 120/2/3
f 128/2/3 117/2/3 121/2/3
f 128/2/3 121/2/3 127/2/3
f 132/3/3 130/3/3 129/3/3
f 133/3/3 132/3/3 131/3/3
f 134/3/3 130/3/3 132/3/3
f 134/3/3 132/3/3 133/3/3
f 135/6/3 134/6/3 133/6/3
f 136/6/3 134/6/3 135/6/3
f 140/2/3 136/2/3 135/2/3
f 141/2/3 136/2/3 140/2/3
f 142/4/3 139/4/3 138/4/3
f 145/5/3 138/5/3 137/5/3
f 146/4/3 142/4/3 138/4/3
f 146/5/3 138/5/3 145/5/3
f 147/4/3 142/4/3 146/4/3
f 149/6/3 144/6/3 143/6/3
f 150/6/3 144/6/3 149/6/3
f 153/4/3 142/4/3 147/4/3
f 154/6/3 149/6/3 148/6/3
f 155/6/3 149/6/3 154/6/3
f 157/4/3 153/4/3 152/4/3
f 157/4/3 142/4/3 153/4/3
f 158/6/3 156/6/3 155/6/3
f 159/6/3 156/6/3 158/6/3
f 160/5/3 152/5/3 151/5/3
f 161/4/3 157/4/3 152/4/3
f 161/5/3 152/5/3 160/5/3
f 162/4/3 157/4/3 161/4/3
f 165/2/3 164/2/3 163/2/3
f 166/2/3 164/2/3 165/2/3
f 167/6/3 166/6/3 165/6/3
f 168/6/3 166/6/3 167/6/3
f 169/3/3 168/3/3 167/3/3
f 170/3/3 168/3/3 169/3/3
f 171/3/3 168/3/3 170/3/3
f 172/3/3 168/3/3 171/3/3
f 173/3/4 174/3/4 176/3/4
f 175/3/4 176/3/4 177/3/4
f 176/3/4 174/3/4 178/3/4
f 177/3/4 176/3/4 178/3/4
f 177/6/4 178/6/4 179/6/4
f 179/6/4 178/6/4 180/6/4
f 179/2/4 180/2/4 184/2/4
f 184/2/4 180/2/4 185/2/4
f 181/5/4 182/5/4 188/5/4
f 182/4/4 183/4/4 189/4/4
f 188/5/4 182/5/4 189/5/4
f 189/4/4 183/4/4 190/4/4
f 190/4/4 183/4/4 195/4/4
f 191/6/4 192/6/4 196/6/4
f 196/6/4 192/6/4 197/6/4
f 186/5/4 187/5/4 198/5/4
f 198/5/4 187/5/4 199/5/4
f 193/5/4 194/5/4 200/5/4
f 194/4/4 195/4/4 201/4/4
f 200/5/4 194/5/4 201/5/4
f 195/4/4 183/4/4 202/4/4
f 201/4/4 195/4/4 202/4/4
f 203/2/4 204/2/4 205/2/4
f 205/2/4 204/2/4 206/2/4
f 205/6/4 206/6/4 207/6/4
f 207/6/4 206/6/4 208/6/4
f 207/3/4 208/3/4 209/3/4
f 209/3/4 208/3/4 210/3/4
f 210/3/4 208/3/4 211/3/4
f 211/3/4 208/3/4 212/3/4
f 215/5/4 216/5/4 217/5/4
f 217/5/4 216/5/4 218/5/4
f 213/2/4 214/2/4 219/2/4
f 219/2/4 214/2/4 220/2/4
f 225/5/5 222/5/5 221/5/5
f 226/5/5 222/5/5 225/5/5
f 227/5/5 224/5/5 223/5/5
f 228/5/5 224/5/5 227/5/5
f 231/4/5 230/4/5 229/4/5
f 232/4/5 230/4/5 231/4/5
f 237/2/5 234/2/5 233/2/5
f 238/3/5 235/3/5 234/3/5
f 238/2/5 234/2/5 237/2/5
f 239/2/5 236/2/5 235/2/5
f 239/3/5 235/3/5 238/3/5
f 240/2/5 236/2/5 239/2/5
f 243/2/5 242/2/5 241/2/5
f 244/2/5 242/2/5 243/2/5
f 253/3/5 246/3/5 245/3/5
f 254/6/5 247/6/5 246/6/5
f 254/3/5 246/3/5 253/3/5
f 255/2/5 248/2/5 247/2/5
f 255/6/5 247/6/5 254/6/5
f 256/2/5 248/2/5 255/2/5
f 257/2/5 250/2/5 249/2/5
f 258/6/5 251/6/5 250/6/5
f 258/2/5 250/2/5 257/2/5
f 259/3/5 252/3/5 251/3/5
f 259/6/5 251/6/5 258/6/5
f 260/3/5 252/3/5 259/3/5
f 265/3/5 262/3/5 261/3/5
f 266/3/5 262/3/5 265/3/5
f 267/3/5 264/3/5 263/3/5
f 268/3/5 264/3/5 267/3/5
f 272/6/5 270/6/5 269/6/5
f 273/6/5 270/6/5 272/6/5
f 275/6/5 272/6/5 271/6/5
f 276/6/5 272/6/5 275/6/5
f 277/6/5 274/6/5 273/6/5
f 278/6/5 274/6/5 277/6/5
f 279/5/5 276/5/5 275/5/5
f 279/5/5 277/5/5 276/5/5
f 279/5/5 278/5/5 277/5/5
f 280/5/5 278/5/5 279/5/5
f 285/6/5 282/6/5 281/6/5
f 286/6/5 282/6/5 285/6/5
f 287/6/5 284/6/5 283/6/5
f 288/6/5 284/6/5 287/6/5
f 289/5/6 290/5/6 293/5/6
f 293/5/6 290/5/6 294/5/6
f 291/5/6 292/5/6 295/5/6
f 295/5/6 292/5/6 296/5/6
f 297/2/6 298/2/6 304/2/6
f 298/3/6 299/3/6 305/3/6
f 304/2/6 298/2/6 305/2/6
f 299/2/6 300/2/6 306/2/6
f 305/3/6 299/3/6 306/3/6
f 306/2/6 300/2/6 307/2/6
f 301/3/6 302/3/6 311/3/6
f 302/6/6 303/6/6 312/6/6
f 311/3/6 302/3/6 312/3/6
f 303/2/6 304/2/6 313/2/6
f 312/6/6 303/6/6 313/6/6
f 304/2/6 305/2/6 313/2/6
f 313/2/6 305/2/6 314/2/6
f 314/2/6 305/2/6 315/2/6
f 307/2/6 308/2/6 316/2/6
f 306/2/6 307/2/6 316/2/6
f 316/2/6 308/2/6 317/2/6
f 308/6/6 309/6/6 318/6/6
f 317/2/6 308/2/6 318/2/6
f 309/3/6 310/3/6 319/3/6
f 318/6/6 309/6/6 319/6/6
f 319/3/6 310/3/6 320/3/6
f 314/2/6 315/2/6 321/2/6
f 315/2/6 316/2/6 321/2/6
f 316/2/6 317/2/6 321/2/6
f 321/2/6 317/2/6 322/2/6
f 323/5/6 324/5/6 325/5/6
f 325/5/6 324/5/6 326/5/6
f 327/5/6 328/5/6 329/5/6
f 329/5/6 328/5/6 330/5/6
