# MagicaVoxel @ Ephtracy

# group
o 

# material
mtllib fireball.mtl
usemtl palette

# normals
vn -1 0 0
vn 1 0 0
vn 0 0 1
vn 0 0 -1
vn 0 -1 0
vn 0 1 0

# texcoords
vt 0.00195313 0.5
vt 0.00585938 0.5
vt 0.00976563 0.5

# verts
v 0 2 -0.1
v 0 2 -0.4
v 0 2.1 0
v 0 2.1 -0.1
v 0 2.1 -0.3
v 0 2.1 -0.4
v 0 2.1 -0.5
v 0 2.2 -0.3
v 0 2.2 -0.4
v 0 2.3 0
v 0 2.3 -0.1
v 0 2.3 -0.3
v 0 2.3 -0.5
v 0 2.4 0
v 0 2.4 -0.1
v 0 2.4 -0.2
v 0 2.4 -0.3
v 0 2.4 -0.4
v 0 2.4 -0.5
v 0 2.5 -0.1
v 0 2.5 -0.2
v 0 2.5 -0.3
v 0 2.5 -0.4
v 0.1 2 0
v 0.1 2 -0.1
v 0.1 2 -0.4
v 0.1 2 -0.5
v 0.1 2.1 0
v 0.1 2.1 -0.1
v 0.1 2.1 -0.4
v 0.1 2.1 -0.5
v 0.1 2.4 0
v 0.1 2.4 -0.1
v 0.1 2.4 -0.4
v 0.1 2.4 -0.5
v 0.1 2.5 0
v 0.1 2.5 -0.1
v 0.1 2.5 -0.4
v 0.1 2.5 -0.5
v 0.4 2 0
v 0.4 2 -0.1
v 0.4 2 -0.4
v 0.4 2 -0.5
v 0.4 2.1 0
v 0.4 2.1 -0.1
v 0.4 2.1 -0.4
v 0.4 2.1 -0.5
v 0.4 2.4 0
v 0.4 2.4 -0.1
v 0.4 2.4 -0.4
v 0.4 2.4 -0.5
v 0.4 2.5 0
v 0.4 2.5 -0.1
v 0.4 2.5 -0.4
v 0.4 2.5 -0.5
v 0.5 2 -0.1
v 0.5 2 -0.3
v 0.5 2 -0.4
v 0.5 2.1 0
v 0.5 2.1 -0.1
v 0.5 2.1 -0.2
v 0.5 2.1 -0.3
v 0.5 2.1 -0.4
v 0.5 2.1 -0.5
v 0.5 2.2 -0.1
v 0.5 2.2 -0.2
v 0.5 2.2 -0.4
v 0.5 2.2 -0.5
v 0.5 2.3 -0.2
v 0.5 2.3 -0.4
v 0.5 2.3 -0.5
v 0.5 2.4 0
v 0.5 2.4 -0.1
v 0.5 2.4 -0.2
v 0.5 2.4 -0.4
v 0.5 2.4 -0.5
v 0.5 2.5 -0.1
v 0.5 2.5 -0.2
v 0.5 2.5 -0.4
v 0 2.1 0
v 0 2.3 0
v 0 2.4 0
v 0.1 2 0
v 0.1 2.1 0
v 0.1 2.2 0
v 0.1 2.3 0
v 0.1 2.4 0
v 0.1 2.5 0
v 0.2 2 0
v 0.2 2.2 0
v 0.2 2.3 0
v 0.3 2 0
v 0.3 2.1 0
v 0.3 2.2 0
v 0.3 2.4 0
v 0.3 2.5 0
v 0.4 2 0
v 0.4 2.1 0
v 0.4 2.2 0
v 0.4 2.4 0
v 0.4 2.5 0
v 0.5 2.1 0
v 0.5 2.4 0
v 0 2 -0.1
v 0 2.1 -0.1
v 0 2.4 -0.1
v 0 2.5 -0.1
v 0.1 2 -0.1
v 0.1 2.1 -0.1
v 0.1 2.4 -0.1
v 0.1 2.5 -0.1
v 0.4 2 -0.1
v 0.4 2.1 -0.1
v 0.4 2.4 -0.1
v 0.4 2.5 -0.1
v 0.5 2 -0.1
v 0.5 2.1 -0.1
v 0.5 2.4 -0.1
v 0.5 2.5 -0.1
v 0 2 -0.4
v 0 2.1 -0.4
v 0 2.4 -0.4
v 0 2.5 -0.4
v 0.1 2 -0.4
v 0.1 2.1 -0.4
v 0.1 2.4 -0.4
v 0.1 2.5 -0.4
v 0.4 2 -0.4
v 0.4 2.1 -0.4
v 0.4 2.4 -0.4
v 0.4 2.5 -0.4
v 0.5 2 -0.4
v 0.5 2.1 -0.4
v 0.5 2.4 -0.4
v 0.5 2.5 -0.4
v 0 2.1 -0.5
v 0 2.3 -0.5
v 0 2.4 -0.5
v 0.1 2 -0.5
v 0.1 2.1 -0.5
v 0.1 2.2 -0.5
v 0.1 2.3 -0.5
v 0.1 2.4 -0.5
v 0.1 2.5 -0.5
v 0.2 2 -0.5
v 0.2 2.2 -0.5
v 0.2 2.3 -0.5
v 0.2 2.4 -0.5
v 0.2 2.5 -0.5
v 0.3 2.4 -0.5
v 0.3 2.5 -0.5
v 0.4 2 -0.5
v 0.4 2.1 -0.5
v 0.4 2.2 -0.5
v 0.4 2.3 -0.5
v 0.4 2.4 -0.5
v 0.4 2.5 -0.5
v 0.5 2.1 -0.5
v 0.5 2.2 -0.5
v 0.5 2.3 -0.5
v 0.5 2.4 -0.5
v 0.1 2 0
v 0.2 2 0
v 0.3 2 0
v 0.4 2 0
v 0 2 -0.1
v 0.1 2 -0.1
v 0.2 2 -0.1
v 0.4 2 -0.1
v 0.5 2 -0.1
v 0.1 2 -0.2
v 0.2 2 -0.2
v 0.1 2 -0.3
v 0.2 2 -0.3
v 0.3 2 -0.3
v 0.5 2 -0.3
v 0 2 -0.4
v 0.1 2 -0.4
v 0.2 2 -0.4
v 0.3 2 -0.4
v 0.4 2 -0.4
v 0.5 2 -0.4
v 0.1 2 -0.5
v 0.2 2 -0.5
v 0.4 2 -0.5
v 0 2.1 0
v 0.1 2.1 0
v 0.4 2.1 0
v 0.5 2.1 0
v 0 2.1 -0.1
v 0.1 2.1 -0.1
v 0.4 2.1 -0.1
v 0.5 2.1 -0.1
v 0 2.1 -0.4
v 0.1 2.1 -0.4
v 0.4 2.1 -0.4
v 0.5 2.1 -0.4
v 0 2.1 -0.5
v 0.1 2.1 -0.5
v 0.4 2.1 -0.5
v 0.5 2.1 -0.5
v 0 2.4 0
v 0.1 2.4 0
v 0.4 2.4 0
v 0.5 2.4 0
v 0 2.4 -0.1
v 0.1 2.4 -0.1
v 0.4 2.4 -0.1
v 0.5 2.4 -0.1
v 0 2.4 -0.4
v 0.1 2.4 -0.4
v 0.4 2.4 -0.4
v 0.5 2.4 -0.4
v 0 2.4 -0.5
v 0.1 2.4 -0.5
v 0.4 2.4 -0.5
v 0.5 2.4 -0.5
v 0.1 2.5 0
v 0.3 2.5 0
v 0.4 2.5 0
v 0 2.5 -0.1
v 0.1 2.5 -0.1
v 0.4 2.5 -0.1
v 0.5 2.5 -0.1
v 0 2.5 -0.2
v 0.1 2.5 -0.2
v 0.4 2.5 -0.2
v 0.5 2.5 -0.2
v 0 2.5 -0.3
v 0.1 2.5 -0.3
v 0.3 2.5 -0.3
v 0.4 2.5 -0.3
v 0 2.5 -0.4
v 0.1 2.5 -0.4
v 0.2 2.5 -0.4
v 0.3 2.5 -0.4
v 0.4 2.5 -0.4
v 0.5 2.5 -0.4
v 0.1 2.5 -0.5
v 0.2 2.5 -0.5
v 0.3 2.5 -0.5
v 0.4 2.5 -0.5

# faces
f 4/3/1 2/3/1 1/3/1
f 5/3/1 2/3/1 4/3/1
f 6/3/1 2/3/1 5/3/1
f 8/3/1 5/3/1 4/3/1
f 8/2/1 6/2/1 5/2/1
f 9/3/1 7/3/1 6/3/1
f 9/2/1 6/2/1 8/2/1
f 10/1/1 4/1/1 3/1/1
f 11/3/1 8/3/1 4/3/1
f 11/1/1 4/1/1 10/1/1
f 11/3/1 9/3/1 8/3/1
f 12/3/1 9/3/1 11/3/1
f 13/3/1 7/3/1 9/3/1
f 13/3/1 9/3/1 12/3/1
f 14/3/1 12/3/1 11/3/1
f 14/3/1 11/3/1 10/3/1
f 15/3/1 12/3/1 14/3/1
f 16/3/1 12/3/1 15/3/1
f 17/1/1 13/1/1 12/1/1
f 17/3/1 12/3/1 16/3/1
f 18/1/1 13/1/1 17/1/1
f 19/1/1 13/1/1 18/1/1
f 20/1/1 16/1/1 15/1/1
f 21/2/1 17/2/1 16/2/1
f 21/1/1 16/1/1 20/1/1
f 22/1/1 18/1/1 17/1/1
f 22/2/1 17/2/1 21/2/1
f 23/1/1 18/1/1 22/1/1
f 28/1/1 25/1/1 24/1/1
f 29/1/1 25/1/1 28/1/1
f 30/1/1 27/1/1 26/1/1
f 31/1/1 27/1/1 30/1/1
f 36/1/1 33/1/1 32/1/1
f 37/1/1 33/1/1 36/1/1
f 38/3/1 35/3/1 34/3/1
f 39/3/1 35/3/1 38/3/1
f 40/1/2 41/1/2 44/1/2
f 44/1/2 41/1/2 45/1/2
f 42/3/2 43/3/2 46/3/2
f 46/3/2 43/3/2 47/3/2
f 48/3/2 49/3/2 52/3/2
f 52/3/2 49/3/2 53/3/2
f 50/3/2 51/3/2 54/3/2
f 54/3/2 51/3/2 55/3/2
f 56/1/2 57/1/2 60/1/2
f 60/1/2 57/1/2 61/1/2
f 57/3/2 58/3/2 62/3/2
f 61/1/2 57/1/2 62/1/2
f 62/3/2 58/3/2 63/3/2
f 60/2/2 61/2/2 65/2/2
f 59/3/2 60/3/2 65/3/2
f 63/3/2 64/3/2 66/3/2
f 65/2/2 61/2/2 66/2/2
f 62/3/2 63/3/2 66/3/2
f 61/3/2 62/3/2 66/3/2
f 66/3/2 64/3/2 67/3/2
f 67/3/2 64/3/2 68/3/2
f 65/3/2 66/3/2 69/3/2
f 66/3/2 67/3/2 69/3/2
f 67/2/2 68/2/2 70/2/2
f 69/3/2 67/3/2 70/3/2
f 70/2/2 68/2/2 71/2/2
f 59/3/2 65/3/2 72/3/2
f 65/3/2 69/3/2 72/3/2
f 72/3/2 69/3/2 73/3/2
f 70/1/2 71/1/2 74/1/2
f 73/3/2 69/3/2 74/3/2
f 69/1/2 70/1/2 74/1/2
f 74/1/2 71/1/2 75/1/2
f 75/1/2 71/1/2 76/1/2
f 73/2/2 74/2/2 77/2/2
f 74/1/2 75/1/2 78/1/2
f 77/2/2 74/2/2 78/2/2
f 78/1/2 75/1/2 79/1/2
f 84/1/3 81/1/3 80/1/3
f 85/1/3 81/1/3 84/1/3
f 86/3/3 82/3/3 81/3/3
f 86/1/3 81/1/3 85/1/3
f 87/3/3 82/3/3 86/3/3
f 89/1/3 85/1/3 84/1/3
f 89/1/3 84/1/3 83/1/3
f 90/2/3 86/2/3 85/2/3
f 90/1/3 85/1/3 89/1/3
f 91/3/3 87/3/3 86/3/3
f 91/2/3 86/2/3 90/2/3
f 92/3/3 90/3/3 89/3/3
f 92/3/3 91/3/3 90/3/3
f 93/3/3 91/3/3 92/3/3
f 94/3/3 91/3/3 93/3/3
f 95/1/3 88/1/3 87/1/3
f 95/3/3 91/3/3 94/3/3
f 95/3/3 87/3/3 91/3/3
f 96/1/3 88/1/3 95/1/3
f 97/1/3 93/1/3 92/1/3
f 98/2/3 94/2/3 93/2/3
f 98/1/3 93/1/3 97/1/3
f 99/3/3 95/3/3 94/3/3
f 99/2/3 94/2/3 98/2/3
f 99/3/3 96/3/3 95/3/3
f 100/3/3 96/3/3 99/3/3
f 101/3/3 96/3/3 100/3/3
f 102/3/3 99/3/3 98/3/3
f 102/3/3 100/3/3 99/3/3
f 103/3/3 100/3/3 102/3/3
f 108/3/3 105/3/3 104/3/3
f 109/3/3 105/3/3 108/3/3
f 110/1/3 107/1/3 106/1/3
f 111/1/3 107/1/3 110/1/3
f 116/1/3 113/1/3 112/1/3
f 117/1/3 113/1/3 116/1/3
f 118/2/3 115/2/3 114/2/3
f 119/2/3 115/2/3 118/2/3
f 120/3/4 121/3/4 124/3/4
f 124/3/4 121/3/4 125/3/4
f 122/1/4 123/1/4 126/1/4
f 126/1/4 123/1/4 127/1/4
f 128/3/4 129/3/4 132/3/4
f 132/3/4 129/3/4 133/3/4
f 130/1/4 131/1/4 134/1/4
f 134/1/4 131/1/4 135/1/4
f 136/3/4 137/3/4 140/3/4
f 140/3/4 137/3/4 141/3/4
f 137/1/4 138/1/4 142/1/4
f 141/3/4 137/3/4 142/3/4
f 142/1/4 138/1/4 143/1/4
f 140/1/4 141/1/4 145/1/4
f 139/1/4 140/1/4 145/1/4
f 141/2/4 142/2/4 146/2/4
f 145/1/4 141/1/4 146/1/4
f 142/1/4 143/1/4 147/1/4
f 146/2/4 142/2/4 147/2/4
f 143/3/4 144/3/4 148/3/4
f 147/1/4 143/1/4 148/1/4
f 148/3/4 144/3/4 149/3/4
f 146/3/4 147/3/4 150/3/4
f 145/3/4 146/3/4 150/3/4
f 148/2/4 149/2/4 150/2/4
f 147/3/4 148/3/4 150/3/4
f 150/2/4 149/2/4 151/2/4
f 145/3/4 150/3/4 152/3/4
f 150/3/4 151/3/4 152/3/4
f 152/3/4 151/3/4 153/3/4
f 153/3/4 151/3/4 154/3/4
f 154/3/4 151/3/4 155/3/4
f 155/3/4 151/3/4 156/3/4
f 156/3/4 151/3/4 157/3/4
f 153/3/4 154/3/4 158/3/4
f 154/2/4 155/2/4 159/2/4
f 158/3/4 154/3/4 159/3/4
f 155/1/4 156/1/4 160/1/4
f 159/2/4 155/2/4 160/2/4
f 160/1/4 156/1/4 161/1/4
f 167/1/5 163/1/5 162/1/5
f 168/3/5 164/3/5 163/3/5
f 168/1/5 163/1/5 167/1/5
f 169/1/5 165/1/5 164/1/5
f 171/3/5 167/3/5 166/3/5
f 171/2/5 168/2/5 167/2/5
f 172/3/5 164/3/5 168/3/5
f 172/2/5 168/2/5 171/2/5
f 173/3/5 171/3/5 166/3/5
f 173/3/5 172/3/5 171/3/5
f 174/3/5 164/3/5 172/3/5
f 174/3/5 172/3/5 173/3/5
f 175/1/5 170/1/5 169/1/5
f 175/3/5 164/3/5 174/3/5
f 175/1/5 169/1/5 164/1/5
f 176/1/5 170/1/5 175/1/5
f 177/3/5 173/3/5 166/3/5
f 178/1/5 174/1/5 173/1/5
f 178/3/5 173/3/5 177/3/5
f 179/2/5 175/2/5 174/2/5
f 179/1/5 174/1/5 178/1/5
f 180/3/5 176/3/5 175/3/5
f 180/2/5 175/2/5 179/2/5
f 181/3/5 176/3/5 180/3/5
f 182/3/5 176/3/5 181/3/5
f 183/1/5 179/1/5 178/1/5
f 184/3/5 181/3/5 180/3/5
f 184/1/5 179/1/5 183/1/5
f 184/3/5 180/3/5 179/3/5
f 185/3/5 181/3/5 184/3/5
f 190/1/5 187/1/5 186/1/5
f 191/1/5 187/1/5 190/1/5
f 192/3/5 189/3/5 188/3/5
f 193/3/5 189/3/5 192/3/5
f 198/3/5 195/3/5 194/3/5
f 199/3/5 195/3/5 198/3/5
f 200/3/5 197/3/5 196/3/5
f 201/3/5 197/3/5 200/3/5
f 202/3/6 203/3/6 206/3/6
f 206/3/6 203/3/6 207/3/6
f 204/3/6 205/3/6 208/3/6
f 208/3/6 205/3/6 209/3/6
f 210/1/6 211/1/6 214/1/6
f 214/1/6 211/1/6 215/1/6
f 212/1/6 213/1/6 216/1/6
f 216/1/6 213/1/6 217/1/6
f 218/1/6 219/1/6 222/1/6
f 219/3/6 220/3/6 223/3/6
f 221/1/6 222/1/6 225/1/6
f 222/1/6 219/1/6 226/1/6
f 225/1/6 222/1/6 226/1/6
f 223/2/6 224/2/6 227/2/6
f 219/3/6 223/3/6 227/3/6
f 227/2/6 224/2/6 228/2/6
f 225/2/6 226/2/6 229/2/6
f 226/1/6 219/1/6 230/1/6
f 229/2/6 226/2/6 230/2/6
f 219/3/6 227/3/6 231/3/6
f 230/1/6 219/1/6 231/1/6
f 227/1/6 228/1/6 232/1/6
f 231/3/6 227/3/6 232/3/6
f 229/1/6 230/1/6 233/1/6
f 230/1/6 231/1/6 233/1/6
f 233/1/6 231/1/6 234/1/6
f 234/1/6 231/1/6 235/1/6
f 231/2/6 232/2/6 236/2/6
f 235/1/6 231/1/6 236/1/6
f 232/1/6 228/1/6 237/1/6
f 236/2/6 232/2/6 237/2/6
f 237/1/6 228/1/6 238/1/6
f 234/3/6 235/3/6 239/3/6
f 235/2/6 236/2/6 240/2/6
f 239/3/6 235/3/6 240/3/6
f 236/3/6 237/3/6 241/3/6
f 240/2/6 236/2/6 241/2/6
f 241/3/6 237/3/6 242/3/6
