# MagicaVoxel @ Ephtracy

# group
o 

# material
mtllib LevelAssets-5.mtl
usemtl palette

# normals
vn -1 0 0
vn 1 0 0
vn 0 0 1
vn 0 0 -1
vn 0 -1 0
vn 0 1 0

# texcoords
vt 0.00585938 0.5
vt 0.00976563 0.5
vt 0.0136719 0.5

# verts
v -6 0 2
v -6 0 -1.9
v -6 0 -2
v -6 0.1 1.6
v -6 0.1 -1.6
v -6 0.2 2
v -6 0.2 1.6
v -6 0.2 -1.6
v -6 0.2 -1.9
v -6 4 -1.9
v -6 4 -2
v -5.8 0.1 1.6
v -5.8 0.1 -1.6
v -5.8 0.2 1.6
v -5.8 0.2 -1.6
v -5.6 0.6 -1.8
v -5.6 0.6 -1.9
v -5.6 3.6 -1.8
v -5.6 3.6 -1.9
v -2.4 0.1 2
v -2.4 0.1 1.8
v -2.4 0.2 2
v -2.4 0.2 1.8
v -5.6 0.1 2
v -5.6 0.1 1.8
v -5.6 0.2 2
v -5.6 0.2 1.8
v -2.4 0.6 -1.8
v -2.4 0.6 -1.9
v -2.4 3.6 -1.8
v -2.4 3.6 -1.9
v -2.2 0.1 1.6
v -2.2 0.1 -1.6
v -2.2 0.2 1.6
v -2.2 0.2 -1.6
v -2 0 2
v -2 0 -1.9
v -2 0 -2
v -2 0.1 1.6
v -2 0.1 -1.6
v -2 0.2 2
v -2 0.2 1.6
v -2 0.2 -1.6
v -2 0.2 -1.9
v -2 4 -1.9
v -2 4 -2
v -6 0 2
v -6 0.2 2
v -5.6 0.1 2
v -5.6 0.2 2
v -2.4 0.1 2
v -2.4 0.2 2
v -2 0 2
v -2 0.2 2
v -5.6 0.1 1.8
v -5.6 0.2 1.8
v -2.4 0.1 1.8
v -2.4 0.2 1.8
v -6 0.1 -1.6
v -6 0.2 -1.6
v -5.8 0.1 -1.6
v -5.8 0.2 -1.6
v -2.2 0.1 -1.6
v -2.2 0.2 -1.6
v -2 0.1 -1.6
v -2 0.2 -1.6
v -5.6 0.6 -1.8
v -5.6 3.6 -1.8
v -2.4 0.6 -1.8
v -2.4 3.6 -1.8
v -6 0.2 -1.9
v -6 4 -1.9
v -5.6 0.6 -1.9
v -5.6 3.6 -1.9
v -2.4 0.6 -1.9
v -2.4 3.6 -1.9
v -2 0.2 -1.9
v -2 4 -1.9
v -6 0.1 1.6
v -6 0.2 1.6
v -5.8 0.1 1.6
v -5.8 0.2 1.6
v -2.2 0.1 1.6
v -2.2 0.2 1.6
v -2 0.1 1.6
v -2 0.2 1.6
v -6 0 -2
v -6 4 -2
v -2 0 -2
v -2 4 -2
v -6 0 2
v -2 0 2
v -6 0 -1.9
v -2 0 -1.9
v -6 0 -2
v -2 0 -2
v -5.6 0.6 -1.8
v -2.4 0.6 -1.8
v -5.6 0.6 -1.9
v -2.4 0.6 -1.9
v -5.6 0.1 2
v -2.4 0.1 2
v -5.6 0.1 1.8
v -2.4 0.1 1.8
v -6 0.1 1.6
v -5.8 0.1 1.6
v -2.2 0.1 1.6
v -2 0.1 1.6
v -6 0.1 -1.6
v -5.8 0.1 -1.6
v -2.2 0.1 -1.6
v -2 0.1 -1.6
v -6 0.2 2
v -5.6 0.2 2
v -2.4 0.2 2
v -2 0.2 2
v -5.6 0.2 1.8
v -2.4 0.2 1.8
v -6 0.2 1.6
v -5.8 0.2 1.6
v -2.2 0.2 1.6
v -2 0.2 1.6
v -6 0.2 -1.6
v -5.8 0.2 -1.6
v -2.2 0.2 -1.6
v -2 0.2 -1.6
v -6 0.2 -1.9
v -2 0.2 -1.9
v -5.6 3.6 -1.8
v -2.4 3.6 -1.8
v -5.6 3.6 -1.9
v -2.4 3.6 -1.9
v -6 4 -1.9
v -2 4 -1.9
v -6 4 -2
v -2 4 -2

# faces
f 4/1/1 2/1/1 1/1/1
f 5/1/1 2/1/1 4/1/1
f 6/1/1 4/1/1 1/1/1
f 7/1/1 4/1/1 6/1/1
f 8/1/1 2/1/1 5/1/1
f 9/2/1 3/2/1 2/2/1
f 9/1/1 2/1/1 8/1/1
f 10/2/1 3/2/1 9/2/1
f 11/2/1 3/2/1 10/2/1
f 14/1/1 13/1/1 12/1/1
f 15/1/1 13/1/1 14/1/1
f 18/3/1 17/3/1 16/3/1
f 19/3/1 17/3/1 18/3/1
f 22/1/1 21/1/1 20/1/1
f 23/1/1 21/1/1 22/1/1
f 24/1/2 25/1/2 26/1/2
f 26/1/2 25/1/2 27/1/2
f 28/3/2 29/3/2 30/3/2
f 30/3/2 29/3/2 31/3/2
f 32/1/2 33/1/2 34/1/2
f 34/1/2 33/1/2 35/1/2
f 36/1/2 37/1/2 39/1/2
f 39/1/2 37/1/2 40/1/2
f 36/1/2 39/1/2 41/1/2
f 41/1/2 39/1/2 42/1/2
f 40/1/2 37/1/2 43/1/2
f 37/2/2 38/2/2 44/2/2
f 43/1/2 37/1/2 44/1/2
f 44/2/2 38/2/2 45/2/2
f 45/2/2 38/2/2 46/2/2
f 49/1/3 48/1/3 47/1/3
f 50/1/3 48/1/3 49/1/3
f 51/1/3 49/1/3 47/1/3
f 53/1/3 51/1/3 47/1/3
f 53/1/3 52/1/3 51/1/3
f 54/1/3 52/1/3 53/1/3
f 57/1/3 56/1/3 55/1/3
f 58/1/3 56/1/3 57/1/3
f 61/1/3 60/1/3 59/1/3
f 62/1/3 60/1/3 61/1/3
f 65/1/3 64/1/3 63/1/3
f 66/1/3 64/1/3 65/1/3
f 69/3/3 68/3/3 67/3/3
f 70/3/3 68/3/3 69/3/3
f 73/2/3 72/2/3 71/2/3
f 74/2/3 72/2/3 73/2/3
f 75/2/3 73/2/3 71/2/3
f 76/2/3 72/2/3 74/2/3
f 77/2/3 75/2/3 71/2/3
f 77/2/3 76/2/3 75/2/3
f 78/2/3 72/2/3 76/2/3
f 78/2/3 76/2/3 77/2/3
f 79/1/4 80/1/4 81/1/4
f 81/1/4 80/1/4 82/1/4
f 83/1/4 84/1/4 85/1/4
f 85/1/4 84/1/4 86/1/4
f 87/2/4 88/2/4 89/2/4
f 89/2/4 88/2/4 90/2/4
f 93/1/5 92/1/5 91/1/5
f 94/1/5 92/1/5 93/1/5
f 95/2/5 94/2/5 93/2/5
f 96/2/5 94/2/5 95/2/5
f 99/3/5 98/3/5 97/3/5
f 100/3/5 98/3/5 99/3/5
f 101/1/6 102/1/6 103/1/6
f 103/1/6 102/1/6 104/1/6
f 105/1/6 106/1/6 109/1/6
f 109/1/6 106/1/6 110/1/6
f 107/1/6 108/1/6 111/1/6
f 111/1/6 108/1/6 112/1/6
f 113/1/6 114/1/6 117/1/6
f 115/1/6 116/1/6 118/1/6
f 113/1/6 117/1/6 119/1/6
f 117/1/6 118/1/6 119/1/6
f 119/1/6 118/1/6 120/1/6
f 118/1/6 116/1/6 121/1/6
f 120/1/6 118/1/6 121/1/6
f 121/1/6 116/1/6 122/1/6
f 120/1/6 121/1/6 124/1/6
f 124/1/6 121/1/6 125/1/6
f 123/1/6 124/1/6 127/1/6
f 125/1/6 126/1/6 127/1/6
f 124/1/6 125/1/6 127/1/6
f 127/1/6 126/1/6 128/1/6
f 129/3/6 130/3/6 131/3/6
f 131/3/6 130/3/6 132/3/6
f 133/2/6 134/2/6 135/2/6
f 135/2/6 134/2/6 136/2/6
